<svg width="800" height="800" viewBox="0 0 800 800" fill="none" xmlns="http://www.w3.org/2000/svg">
<rect width="81" height="79" transform="translate(449.003 47.9999)" fill="#FCFCFC"/>
<path d="M87.004 253C87.004 153.589 167.593 72.9999 267.004 72.9999H593.004C692.415 72.9999 773.004 153.589 773.004 253V351C773.004 450.411 692.415 531 593.004 531H267.004C167.593 531 87.004 450.411 87.004 351V253Z" fill="black"/>
<path d="M765.899 202.491C765.955 216.184 754.9 227.33 741.207 227.386L92.4845 230.036C78.7915 230.092 67.6458 219.037 67.5899 205.344C67.5339 191.651 78.589 180.505 92.282 180.449L741.004 177.799C754.697 177.743 765.843 188.798 765.899 202.491Z" fill="#D9D9D9"/>
<path d="M67.0029 400C67.0029 243.022 67.0029 164.533 118.333 115.767C169.662 67 252.275 67 417.503 67C582.729 67 665.345 67 716.672 115.767C768.003 164.533 768.003 243.022 768.003 400C768.003 556.976 768.003 635.468 716.672 684.232C665.345 733 582.729 733 417.503 733C252.275 733 169.662 733 118.333 684.232C67.0029 635.468 67.0029 556.976 67.0029 400Z" stroke="#D9D9D9" stroke-width="50"/>
<path d="M74.5762 431.717V338H224.216L421.001 431.717L601.389 338H684.92H750.003V613L684.92 706L421.001 732.786H269.312L107.374 706L51.0029 570.644L74.5762 431.717Z" fill="#D9D9D9"/>
<path d="M101 309H206.395C236.582 309 251.676 309 264.943 314.961C278.211 320.918 288.034 332.113 307.68 354.496L327.87 377.504C347.516 399.887 357.339 411.082 370.608 417.039C383.875 423 398.969 423 429.154 423H439.846C470.031 423 485.125 423 498.392 417.039C511.662 411.082 521.483 399.887 541.13 377.504L561.32 354.496C580.967 332.113 590.788 320.918 604.058 314.961C617.325 309 632.419 309 662.604 309H768" stroke="#D9D9D9" stroke-width="51" stroke-linecap="round"/>
<path d="M567 329C567 314.088 579.088 302 594 302H746C760.912 302 773 314.088 773 329C773 343.912 760.912 356 746 356H594C579.088 356 567 343.912 567 329Z" fill="#D9D9D9"/>
<path d="M324 531C324 516.088 336.088 504 351 504H503C517.912 504 530 516.088 530 531C530 545.912 517.912 558 503 558H351C336.088 558 324 545.912 324 531Z" fill="#D9D9D9"/>
<path d="M87 373C87 358.088 99.0883 346 114 346H266C280.912 346 293 358.088 293 373C293 387.912 280.912 400 266 400H114C99.0883 400 87 387.912 87 373Z" fill="#D9D9D9"/>
<path d="M68 356C68 341.088 80.0883 329 95 329H247C261.912 329 274 341.088 274 356C274 370.912 261.912 383 247 383H95C80.0883 383 68 370.912 68 356Z" fill="#D9D9D9"/>
</svg>
